<svg width="24" height="24" viewBox="0 0 24 24" fill="none" xmlns="http://www.w3.org/2000/svg">
<path d="M3.72955 12C3.72973 12.1988 3.80886 12.3895 3.94955 12.53L10.9496 19.53C11.1425 19.7176 11.4208 19.788 11.6797 19.7147C11.9386 19.6414 12.1387 19.4355 12.2047 19.1747C12.2707 18.9138 12.1925 18.6376 11.9996 18.45L5.54955 12L11.9996 5.55C12.2002 5.36303 12.2828 5.08145 12.2149 4.81571C12.1471 4.54998 11.9396 4.34248 11.6738 4.27462C11.4081 4.20676 11.1265 4.28935 10.9396 4.49L3.93955 11.49C3.80732 11.6272 3.73224 11.8095 3.72955 12Z" fill="white"/>
<path d="M3.73828 12C3.74367 12.412 4.07632 12.7446 4.48828 12.75L19.4883 12.75C19.7562 12.75 20.0038 12.6071 20.1378 12.375C20.2718 12.1429 20.2718 11.8571 20.1378 11.625C20.0038 11.3929 19.7562 11.25 19.4883 11.25L4.48828 11.25C4.07632 11.2554 3.74367 11.588 3.73828 12Z" fill="white"/>
<path d="M3.72955 12C3.72973 12.1988 3.80886 12.3895 3.94955 12.53L10.9496 19.53C11.1425 19.7176 11.4208 19.788 11.6797 19.7147C11.9386 19.6414 12.1387 19.4355 12.2047 19.1747C12.2707 18.9138 12.1925 18.6376 11.9996 18.45L5.54955 12L11.9996 5.55C12.2002 5.36303 12.2828 5.08145 12.2149 4.81571C12.1471 4.54998 11.9396 4.34248 11.6738 4.27462C11.4081 4.20676 11.1265 4.28935 10.9396 4.49L3.93955 11.49C3.80732 11.6272 3.73224 11.8095 3.72955 12Z" fill="white"/>
<path d="M3.73828 12C3.74367 12.412 4.07632 12.7446 4.48828 12.75L19.4883 12.75C19.7562 12.75 20.0038 12.6071 20.1378 12.375C20.2718 12.1429 20.2718 11.8571 20.1378 11.625C20.0038 11.3929 19.7562 11.25 19.4883 11.25L4.48828 11.25C4.07632 11.2554 3.74367 11.588 3.73828 12Z" fill="white"/>
</svg>
