<svg width="24" height="24" viewBox="0 0 24 24" fill="none" xmlns="http://www.w3.org/2000/svg">
<path d="M20.2704 12C20.2703 12.1988 20.1911 12.3895 20.0504 12.53L13.0504 19.53C12.8575 19.7176 12.5792 19.788 12.3203 19.7147C12.0614 19.6414 11.8613 19.4355 11.7953 19.1747C11.7293 18.9138 11.8075 18.6376 12.0004 18.45L18.4504 12L12.0004 5.55C11.7998 5.36303 11.7172 5.08145 11.7851 4.81571C11.8529 4.54998 12.0604 4.34248 12.3262 4.27462C12.5919 4.20676 12.8735 4.28935 13.0604 4.49L20.0604 11.49C20.1927 11.6272 20.2678 11.8095 20.2704 12V12Z" fill="white"/>
<path d="M20.2617 12C20.2563 12.412 19.9237 12.7446 19.5117 12.75L4.51172 12.75C4.24377 12.75 3.99617 12.6071 3.8622 12.375C3.72823 12.1429 3.72823 11.8571 3.8622 11.625C3.99617 11.3929 4.24377 11.25 4.51172 11.25L19.5117 11.25C19.9237 11.2554 20.2563 11.588 20.2617 12V12Z" fill="white"/>
<path d="M20.2704 12C20.2703 12.1988 20.1911 12.3895 20.0504 12.53L13.0504 19.53C12.8575 19.7176 12.5792 19.788 12.3203 19.7147C12.0614 19.6414 11.8613 19.4355 11.7953 19.1747C11.7293 18.9138 11.8075 18.6376 12.0004 18.45L18.4504 12L12.0004 5.55C11.7998 5.36303 11.7172 5.08145 11.7851 4.81571C11.8529 4.54998 12.0604 4.34248 12.3262 4.27462C12.5919 4.20676 12.8735 4.28935 13.0604 4.49L20.0604 11.49C20.1927 11.6272 20.2678 11.8095 20.2704 12V12Z" fill="white"/>
<path d="M20.2617 12C20.2563 12.412 19.9237 12.7446 19.5117 12.75L4.51172 12.75C4.24377 12.75 3.99617 12.6071 3.8622 12.375C3.72823 12.1429 3.72823 11.8571 3.8622 11.625C3.99617 11.3929 4.24377 11.25 4.51172 11.25L19.5117 11.25C19.9237 11.2554 20.2563 11.588 20.2617 12V12Z" fill="white"/>
</svg>
