<svg width="20" height="20" viewBox="0 0 20 20" fill="none" xmlns="http://www.w3.org/2000/svg">
<path d="M19.6485 17.9883L11.6563 10.0005L19.6485 2.07142C20.049 1.60753 20.0273 0.911385 19.5987 0.473678C19.1701 0.0359716 18.479 0.00426739 18.0127 0.400914L9.99706 8.27113L2.12168 0.342093C1.66594 -0.114031 0.929898 -0.114031 0.474157 0.342093C0.252954 0.562984 0.12853 0.863671 0.12853 1.17735C0.12853 1.49102 0.252954 1.79171 0.474157 2.0126L8.33785 9.92987L0.345627 17.8471C0.124424 18.068 0 18.3687 0 18.6824C0 18.9961 0.124424 19.2968 0.345627 19.5177C0.566136 19.7379 0.864651 19.8606 1.17523 19.8588C1.48011 19.8607 1.77363 19.7424 1.99315 19.5294L9.99706 11.5886L18.0127 19.6588C18.2332 19.879 18.5317 20.0018 18.8423 20C19.1488 19.9987 19.4425 19.8762 19.6602 19.6588C19.8798 19.4364 20.0022 19.1348 20 18.8211C19.9978 18.5074 19.8712 18.2076 19.6485 17.9883Z" fill="#0057B8"/>
</svg>
